<svg id="visual" viewBox="0 0 900 600" width="900" height="600" xmlns="http://www.w3.org/2000/svg" xmlns:xlink="http://www.w3.org/1999/xlink" version="1.1"><rect x="0" y="0" width="900" height="600" fill="#CCCCCC"></rect><defs><linearGradient id="grad1_0" x1="33.3%" y1="0%" x2="100%" y2="100%"><stop offset="20%" stop-color="#cccccc" stop-opacity="1"></stop><stop offset="80%" stop-color="#cccccc" stop-opacity="1"></stop></linearGradient></defs><defs><linearGradient id="grad2_0" x1="0%" y1="0%" x2="66.7%" y2="100%"><stop offset="20%" stop-color="#cccccc" stop-opacity="1"></stop><stop offset="80%" stop-color="#cccccc" stop-opacity="1"></stop></linearGradient></defs><g transform="translate(900, 0)"><path d="M0 216.3C-13.1 211.7 -26.2 207.1 -41.2 206.9C-56.1 206.8 -73 211 -82.8 199.9C-92.6 188.7 -95.2 162.3 -94.4 141.3C-93.7 120.4 -89.5 105 -101.8 101.8C-114.1 98.7 -142.8 107.8 -153.8 102.8C-164.8 97.8 -158 78.7 -158 65.4C-158 52.2 -164.7 44.8 -175.6 34.9C-186.4 25 -201.4 12.5 -216.3 0L0 0Z" fill="#25af00"></path></g><g transform="translate(0, 600)"><path d="M0 -216.3C10.9 -201.4 21.8 -186.4 37.1 -186.3C52.3 -186.3 72 -201.3 80.4 -194C88.7 -186.8 85.7 -157.3 101.1 -151.3C116.5 -145.3 150.2 -162.8 152 -152C153.8 -141.3 123.7 -102.4 133.9 -89.4C144 -76.5 194.5 -89.6 199.9 -82.8C205.3 -75.9 165.6 -49.1 160.8 -32C156.1 -14.9 186.2 -7.4 216.3 0L0 0Z" fill="#25af00"></path></g></svg>