<svg id="visual" viewBox="0 0 900 600" width="900" height="600" xmlns="http://www.w3.org/2000/svg" xmlns:xlink="http://www.w3.org/1999/xlink" version="1.1"><rect x="0" y="0" width="900" height="600" fill="#001220"></rect><defs><linearGradient id="grad1_0" x1="33.3%" y1="0%" x2="100%" y2="100%"><stop offset="20%" stop-color="#001220" stop-opacity="1"></stop><stop offset="80%" stop-color="#001220" stop-opacity="1"></stop></linearGradient></defs><defs><linearGradient id="grad2_0" x1="0%" y1="0%" x2="66.7%" y2="100%"><stop offset="20%" stop-color="#001220" stop-opacity="1"></stop><stop offset="80%" stop-color="#001220" stop-opacity="1"></stop></linearGradient></defs><g transform="translate(900, 0)"><path d="M0 486.7C-62.4 476.5 -124.8 466.3 -184.1 444.4C-243.3 422.5 -299.4 389 -344.2 344.2C-389 299.4 -422.5 243.3 -444.4 184.1C-466.3 124.8 -476.5 62.4 -486.7 0L0 0Z" fill="#25af00"></path></g><g transform="translate(0, 600)"><path d="M0 -486.7C55.3 -456.5 110.6 -426.3 167.2 -403.7C223.9 -381.2 282 -366.4 332.3 -332.3C382.7 -298.3 425.3 -244.9 449.7 -186.3C474.1 -127.7 480.4 -63.8 486.7 0L0 0Z" fill="#25af00"></path></g></svg>